<mxfile host="Electron" agent="Mozilla/5.0 (Windows NT 10.0; Win64; x64) AppleWebKit/537.36 (KHTML, like Gecko) draw.io/24.7.17 Chrome/128.0.6613.36 Electron/32.0.1 Safari/537.36" version="24.7.17">
  <diagram name="Page-1" id="doCMb7OPEuhO2K7QkIap">
    <mxGraphModel dx="2307" dy="866" grid="1" gridSize="10" guides="1" tooltips="1" connect="1" arrows="1" fold="1" page="1" pageScale="1" pageWidth="827" pageHeight="1169" math="0" shadow="0">
      <root>
        <mxCell id="0" />
        <mxCell id="1" parent="0" />
        <mxCell id="E-CFwYmauPvcHo1KGwYZ-1" value="Patient_Rééducation" style="swimlane;fontStyle=0;childLayout=stackLayout;horizontal=1;startSize=26;fillColor=none;horizontalStack=0;resizeParent=1;resizeParentMax=0;resizeLast=0;collapsible=1;marginBottom=0;whiteSpace=wrap;html=1;" parent="1" vertex="1">
          <mxGeometry x="90" y="650" width="140" height="120" as="geometry" />
        </mxCell>
        <mxCell id="E-CFwYmauPvcHo1KGwYZ-4" value="&lt;div&gt;personne_id&lt;/div&gt;&lt;b&gt;&lt;u&gt;patientReeduc_id&lt;/u&gt;&lt;/b&gt;" style="text;strokeColor=none;fillColor=none;align=left;verticalAlign=top;spacingLeft=4;spacingRight=4;overflow=hidden;rotatable=0;points=[[0,0.5],[1,0.5]];portConstraint=eastwest;whiteSpace=wrap;html=1;" parent="E-CFwYmauPvcHo1KGwYZ-1" vertex="1">
          <mxGeometry y="26" width="140" height="94" as="geometry" />
        </mxCell>
        <mxCell id="E-CFwYmauPvcHo1KGwYZ-16" value="Chambre" style="swimlane;fontStyle=0;childLayout=stackLayout;horizontal=1;startSize=26;fillColor=none;horizontalStack=0;resizeParent=1;resizeParentMax=0;resizeLast=0;collapsible=1;marginBottom=0;whiteSpace=wrap;html=1;" parent="1" vertex="1">
          <mxGeometry x="265" y="870" width="140" height="80" as="geometry" />
        </mxCell>
        <mxCell id="E-CFwYmauPvcHo1KGwYZ-17" value="&lt;div&gt;&lt;b&gt;&lt;u&gt;chambre_id&lt;/u&gt;&lt;/b&gt;&lt;/div&gt;&lt;div&gt;departement_id&lt;br&gt;&lt;/div&gt;&lt;div&gt;&lt;br&gt;&lt;/div&gt;" style="text;strokeColor=none;fillColor=none;align=left;verticalAlign=top;spacingLeft=4;spacingRight=4;overflow=hidden;rotatable=0;points=[[0,0.5],[1,0.5]];portConstraint=eastwest;whiteSpace=wrap;html=1;" parent="E-CFwYmauPvcHo1KGwYZ-16" vertex="1">
          <mxGeometry y="26" width="140" height="54" as="geometry" />
        </mxCell>
        <mxCell id="E-CFwYmauPvcHo1KGwYZ-21" value="Lits_Rééducation" style="swimlane;fontStyle=0;childLayout=stackLayout;horizontal=1;startSize=26;fillColor=none;horizontalStack=0;resizeParent=1;resizeParentMax=0;resizeLast=0;collapsible=1;marginBottom=0;whiteSpace=wrap;html=1;" parent="1" vertex="1">
          <mxGeometry x="90" y="360" width="140" height="100" as="geometry" />
        </mxCell>
        <mxCell id="E-CFwYmauPvcHo1KGwYZ-22" value="&lt;div&gt;lit_id&lt;br&gt;&lt;/div&gt;&lt;div&gt;&lt;b&gt;&lt;u&gt;litReeduc_id&lt;/u&gt;&lt;/b&gt;&lt;br&gt;&lt;/div&gt;&lt;div&gt;statut&lt;/div&gt;&lt;div&gt;personne_id&lt;br&gt;&lt;/div&gt;&lt;div&gt;&lt;br&gt;&lt;/div&gt;" style="text;strokeColor=none;fillColor=none;align=left;verticalAlign=top;spacingLeft=4;spacingRight=4;overflow=hidden;rotatable=0;points=[[0,0.5],[1,0.5]];portConstraint=eastwest;whiteSpace=wrap;html=1;" parent="E-CFwYmauPvcHo1KGwYZ-21" vertex="1">
          <mxGeometry y="26" width="140" height="74" as="geometry" />
        </mxCell>
        <mxCell id="E-CFwYmauPvcHo1KGwYZ-31" value="Séjours" style="swimlane;fontStyle=0;childLayout=stackLayout;horizontal=1;startSize=26;fillColor=none;horizontalStack=0;resizeParent=1;resizeParentMax=0;resizeLast=0;collapsible=1;marginBottom=0;whiteSpace=wrap;html=1;" parent="1" vertex="1">
          <mxGeometry x="-90" y="880" width="140" height="120" as="geometry" />
        </mxCell>
        <mxCell id="E-CFwYmauPvcHo1KGwYZ-32" value="&lt;div&gt;&lt;b&gt;&lt;u&gt;sejour_id&lt;/u&gt;&lt;/b&gt;&lt;/div&gt;&lt;div&gt;personne_id&lt;/div&gt;&lt;div&gt;date_debut&lt;/div&gt;&lt;div&gt;date_fin&lt;/div&gt;&lt;div&gt;type_rehabilitation&lt;br&gt;&lt;/div&gt;" style="text;strokeColor=none;fillColor=none;align=left;verticalAlign=top;spacingLeft=4;spacingRight=4;overflow=hidden;rotatable=0;points=[[0,0.5],[1,0.5]];portConstraint=eastwest;whiteSpace=wrap;html=1;" parent="E-CFwYmauPvcHo1KGwYZ-31" vertex="1">
          <mxGeometry y="26" width="140" height="94" as="geometry" />
        </mxCell>
        <mxCell id="E-CFwYmauPvcHo1KGwYZ-35" value="Équipements_Rééducation" style="swimlane;fontStyle=0;childLayout=stackLayout;horizontal=1;startSize=26;fillColor=none;horizontalStack=0;resizeParent=1;resizeParentMax=0;resizeLast=0;collapsible=1;marginBottom=0;whiteSpace=wrap;html=1;" parent="1" vertex="1">
          <mxGeometry x="300" y="500" width="160" height="120" as="geometry" />
        </mxCell>
        <mxCell id="E-CFwYmauPvcHo1KGwYZ-36" value="&lt;div&gt;equipement_id&lt;/div&gt;&lt;div&gt;&lt;b&gt;&lt;u&gt;equipementReeduc_id&lt;/u&gt;&lt;/b&gt;&lt;br&gt;&lt;/div&gt;&lt;div&gt;type&lt;/div&gt;&lt;div&gt;statut&lt;/div&gt;&lt;div&gt;personne_id&lt;br&gt;&lt;/div&gt;" style="text;strokeColor=none;fillColor=none;align=left;verticalAlign=top;spacingLeft=4;spacingRight=4;overflow=hidden;rotatable=0;points=[[0,0.5],[1,0.5]];portConstraint=eastwest;whiteSpace=wrap;html=1;" parent="E-CFwYmauPvcHo1KGwYZ-35" vertex="1">
          <mxGeometry y="26" width="160" height="94" as="geometry" />
        </mxCell>
        <mxCell id="E-CFwYmauPvcHo1KGwYZ-39" value="Priorités_Transferts" style="swimlane;fontStyle=0;childLayout=stackLayout;horizontal=1;startSize=26;fillColor=none;horizontalStack=0;resizeParent=1;resizeParentMax=0;resizeLast=0;collapsible=1;marginBottom=0;whiteSpace=wrap;html=1;" parent="1" vertex="1">
          <mxGeometry x="-370" y="588" width="160" height="110" as="geometry" />
        </mxCell>
        <mxCell id="E-CFwYmauPvcHo1KGwYZ-40" value="&lt;div&gt;&lt;b&gt;&lt;u&gt;priorite_id&lt;/u&gt;&lt;/b&gt;&lt;/div&gt;&lt;div&gt;personne_id&lt;/div&gt;&lt;div&gt;departement_destination&lt;/div&gt;&lt;div&gt;niveau_priorite&lt;br&gt;&lt;/div&gt;" style="text;strokeColor=none;fillColor=none;align=left;verticalAlign=top;spacingLeft=4;spacingRight=4;overflow=hidden;rotatable=0;points=[[0,0.5],[1,0.5]];portConstraint=eastwest;whiteSpace=wrap;html=1;" parent="E-CFwYmauPvcHo1KGwYZ-39" vertex="1">
          <mxGeometry y="26" width="160" height="84" as="geometry" />
        </mxCell>
        <mxCell id="E-CFwYmauPvcHo1KGwYZ-46" value="" style="line;strokeWidth=1;fillColor=none;align=left;verticalAlign=middle;spacingTop=-1;spacingLeft=3;spacingRight=3;rotatable=0;labelPosition=right;points=[];portConstraint=eastwest;strokeColor=inherit;" parent="1" vertex="1">
          <mxGeometry x="230" y="690" width="40" height="8" as="geometry" />
        </mxCell>
        <mxCell id="E-CFwYmauPvcHo1KGwYZ-52" value="" style="endArrow=none;html=1;edgeStyle=orthogonalEdgeStyle;rounded=0;entryX=1;entryY=0.5;entryDx=0;entryDy=0;exitX=1;exitY=0.5;exitDx=0;exitDy=0;" parent="1" target="E-CFwYmauPvcHo1KGwYZ-36" edge="1" source="PmzOsJec9TfHPfngjc7Z-9">
          <mxGeometry relative="1" as="geometry">
            <mxPoint x="380" y="693.5" as="sourcePoint" />
            <mxPoint x="540" y="693.5" as="targetPoint" />
            <Array as="points">
              <mxPoint x="470" y="695" />
              <mxPoint x="470" y="573" />
            </Array>
          </mxGeometry>
        </mxCell>
        <mxCell id="E-CFwYmauPvcHo1KGwYZ-53" value="1,n" style="edgeLabel;resizable=0;html=1;align=left;verticalAlign=bottom;" parent="E-CFwYmauPvcHo1KGwYZ-52" connectable="0" vertex="1">
          <mxGeometry x="-1" relative="1" as="geometry">
            <mxPoint x="-150" y="-3" as="offset" />
          </mxGeometry>
        </mxCell>
        <mxCell id="E-CFwYmauPvcHo1KGwYZ-55" value="1,n" style="text;html=1;align=center;verticalAlign=middle;whiteSpace=wrap;rounded=0;" parent="1" vertex="1">
          <mxGeometry x="460" y="557.5" width="40" height="15" as="geometry" />
        </mxCell>
        <mxCell id="E-CFwYmauPvcHo1KGwYZ-56" value="" style="endArrow=none;html=1;rounded=0;entryX=0.5;entryY=0;entryDx=0;entryDy=0;" parent="1" edge="1">
          <mxGeometry width="50" height="50" relative="1" as="geometry">
            <mxPoint x="231" y="740" as="sourcePoint" />
            <mxPoint x="335" y="759.9999999999998" as="targetPoint" />
            <Array as="points">
              <mxPoint x="335" y="740" />
            </Array>
          </mxGeometry>
        </mxCell>
        <mxCell id="E-CFwYmauPvcHo1KGwYZ-58" value="" style="endArrow=none;html=1;rounded=0;entryX=0.5;entryY=1;entryDx=0;entryDy=0;exitX=0.5;exitY=0;exitDx=0;exitDy=0;" parent="1" source="E-CFwYmauPvcHo1KGwYZ-16" edge="1">
          <mxGeometry width="50" height="50" relative="1" as="geometry">
            <mxPoint x="170" y="820" as="sourcePoint" />
            <mxPoint x="335" y="809.9999999999998" as="targetPoint" />
          </mxGeometry>
        </mxCell>
        <mxCell id="E-CFwYmauPvcHo1KGwYZ-59" value="1,1" style="text;html=1;align=center;verticalAlign=middle;whiteSpace=wrap;rounded=0;" parent="1" vertex="1">
          <mxGeometry x="220" y="740" width="60" height="30" as="geometry" />
        </mxCell>
        <mxCell id="E-CFwYmauPvcHo1KGwYZ-60" value="1,1" style="text;html=1;align=center;verticalAlign=middle;whiteSpace=wrap;rounded=0;" parent="1" vertex="1">
          <mxGeometry x="320" y="840" width="60" height="30" as="geometry" />
        </mxCell>
        <mxCell id="E-CFwYmauPvcHo1KGwYZ-62" value="" style="endArrow=none;html=1;rounded=0;exitX=1;exitY=0.5;exitDx=0;exitDy=0;" parent="1" edge="1">
          <mxGeometry width="50" height="50" relative="1" as="geometry">
            <mxPoint x="40" y="750" as="sourcePoint" />
            <mxPoint x="92" y="750" as="targetPoint" />
          </mxGeometry>
        </mxCell>
        <mxCell id="E-CFwYmauPvcHo1KGwYZ-63" value="" style="endArrow=none;html=1;rounded=0;entryX=0.5;entryY=0;entryDx=0;entryDy=0;exitX=0.5;exitY=1;exitDx=0;exitDy=0;" parent="1" source="PmzOsJec9TfHPfngjc7Z-1" target="E-CFwYmauPvcHo1KGwYZ-31" edge="1">
          <mxGeometry width="50" height="50" relative="1" as="geometry">
            <mxPoint x="-20" y="820" as="sourcePoint" />
            <mxPoint x="180" y="790" as="targetPoint" />
          </mxGeometry>
        </mxCell>
        <mxCell id="E-CFwYmauPvcHo1KGwYZ-65" value="1,1" style="text;html=1;align=center;verticalAlign=middle;whiteSpace=wrap;rounded=0;" parent="1" vertex="1">
          <mxGeometry x="-30" y="850" width="60" height="30" as="geometry" />
        </mxCell>
        <mxCell id="E-CFwYmauPvcHo1KGwYZ-66" value="1,n" style="text;html=1;align=center;verticalAlign=middle;whiteSpace=wrap;rounded=0;" parent="1" vertex="1">
          <mxGeometry x="40" y="720" width="60" height="30" as="geometry" />
        </mxCell>
        <mxCell id="E-CFwYmauPvcHo1KGwYZ-70" value="" style="endArrow=none;html=1;rounded=0;exitX=0.5;exitY=0;exitDx=0;exitDy=0;entryX=0.5;entryY=1;entryDx=0;entryDy=0;" parent="1" source="E-CFwYmauPvcHo1KGwYZ-1" edge="1">
          <mxGeometry width="50" height="50" relative="1" as="geometry">
            <mxPoint x="130" y="610" as="sourcePoint" />
            <mxPoint x="160" y="580" as="targetPoint" />
          </mxGeometry>
        </mxCell>
        <mxCell id="E-CFwYmauPvcHo1KGwYZ-71" value="" style="endArrow=none;html=1;rounded=0;entryX=0.493;entryY=1;entryDx=0;entryDy=0;entryPerimeter=0;exitX=0.5;exitY=0;exitDx=0;exitDy=0;" parent="1" source="PmzOsJec9TfHPfngjc7Z-8" target="E-CFwYmauPvcHo1KGwYZ-22" edge="1">
          <mxGeometry width="50" height="50" relative="1" as="geometry">
            <mxPoint x="160" y="520" as="sourcePoint" />
            <mxPoint x="180" y="560" as="targetPoint" />
          </mxGeometry>
        </mxCell>
        <mxCell id="E-CFwYmauPvcHo1KGwYZ-72" value="1,1" style="text;html=1;align=center;verticalAlign=middle;whiteSpace=wrap;rounded=0;" parent="1" vertex="1">
          <mxGeometry x="150" y="620" width="60" height="30" as="geometry" />
        </mxCell>
        <mxCell id="E-CFwYmauPvcHo1KGwYZ-73" value="1,1" style="text;html=1;align=center;verticalAlign=middle;whiteSpace=wrap;rounded=0;" parent="1" vertex="1">
          <mxGeometry x="110" y="460" width="60" height="30" as="geometry" />
        </mxCell>
        <mxCell id="E-CFwYmauPvcHo1KGwYZ-74" value="1,1" style="text;html=1;align=center;verticalAlign=middle;whiteSpace=wrap;rounded=0;" parent="1" vertex="1">
          <mxGeometry x="45" y="660" width="60" height="30" as="geometry" />
        </mxCell>
        <mxCell id="E-CFwYmauPvcHo1KGwYZ-75" value="1,1" style="text;html=1;align=center;verticalAlign=middle;whiteSpace=wrap;rounded=0;" parent="1" vertex="1">
          <mxGeometry x="-220" y="628" width="60" height="30" as="geometry" />
        </mxCell>
        <mxCell id="PmzOsJec9TfHPfngjc7Z-1" value="Réalise" style="ellipse;whiteSpace=wrap;html=1;" vertex="1" parent="1">
          <mxGeometry x="-80" y="720" width="120" height="60" as="geometry" />
        </mxCell>
        <mxCell id="PmzOsJec9TfHPfngjc7Z-3" value="Possède" style="ellipse;whiteSpace=wrap;html=1;" vertex="1" parent="1">
          <mxGeometry x="-120" y="660" width="110" height="50" as="geometry" />
        </mxCell>
        <mxCell id="PmzOsJec9TfHPfngjc7Z-4" style="edgeStyle=orthogonalEdgeStyle;rounded=0;orthogonalLoop=1;jettySize=auto;html=1;entryX=0;entryY=0.5;entryDx=0;entryDy=0;endArrow=none;endFill=0;" edge="1" parent="1" source="E-CFwYmauPvcHo1KGwYZ-40" target="PmzOsJec9TfHPfngjc7Z-3">
          <mxGeometry relative="1" as="geometry" />
        </mxCell>
        <mxCell id="PmzOsJec9TfHPfngjc7Z-5" style="edgeStyle=orthogonalEdgeStyle;rounded=0;orthogonalLoop=1;jettySize=auto;html=1;entryX=0.007;entryY=0.131;entryDx=0;entryDy=0;entryPerimeter=0;endArrow=none;endFill=0;" edge="1" parent="1" source="PmzOsJec9TfHPfngjc7Z-3" target="E-CFwYmauPvcHo1KGwYZ-4">
          <mxGeometry relative="1" as="geometry">
            <Array as="points">
              <mxPoint x="91" y="685" />
            </Array>
          </mxGeometry>
        </mxCell>
        <mxCell id="PmzOsJec9TfHPfngjc7Z-8" value="Dort" style="ellipse;whiteSpace=wrap;html=1;" vertex="1" parent="1">
          <mxGeometry x="105" y="534.5" width="110" height="50" as="geometry" />
        </mxCell>
        <mxCell id="PmzOsJec9TfHPfngjc7Z-9" value="Utilise" style="ellipse;whiteSpace=wrap;html=1;" vertex="1" parent="1">
          <mxGeometry x="270" y="670" width="110" height="50" as="geometry" />
        </mxCell>
        <mxCell id="PmzOsJec9TfHPfngjc7Z-10" value="Séjourne" style="ellipse;whiteSpace=wrap;html=1;" vertex="1" parent="1">
          <mxGeometry x="280" y="760" width="110" height="50" as="geometry" />
        </mxCell>
      </root>
    </mxGraphModel>
  </diagram>
</mxfile>
